<svg width="690" height="121" viewBox="0 0 690 121" fill="none" xmlns="http://www.w3.org/2000/svg">
<path d="M176.92 67.008V59.424H194.968C198.872 59.424 201.88 58.432 203.992 56.448C206.104 54.464 207.16 51.776 207.16 48.384C207.16 45.184 206.104 42.528 203.992 40.416C201.944 38.304 198.968 37.248 195.064 37.248H176.92V29.376H195.352C199.576 29.376 203.256 30.208 206.392 31.872C209.528 33.472 211.928 35.68 213.592 38.496C215.32 41.312 216.184 44.544 216.184 48.192C216.184 51.968 215.32 55.264 213.592 58.08C211.928 60.896 209.528 63.104 206.392 64.704C203.256 66.24 199.576 67.008 195.352 67.008H176.92ZM170.872 96V29.376H179.896V96H170.872ZM209.272 96L185.08 66.144L193.624 63.168L220.696 96H209.272ZM230.029 96V29.376H239.053V96H230.029ZM236.173 96V87.744H274.381V96H236.173ZM236.173 65.856V57.984H271.213V65.856H236.173ZM236.173 37.632V29.376H273.901V37.632H236.173ZM331.678 96L310.75 65.472H309.118L282.814 29.376H293.566L314.302 58.08H315.934L342.238 96H331.678ZM281.662 96L307.486 60.576L313.63 65.952L291.838 96H281.662ZM316.51 63.84L310.462 58.464L331.006 29.376H341.182L316.51 63.84ZM357.764 96V88.128H377.924C381.764 88.128 384.772 87.008 386.948 84.768C389.124 82.464 390.212 79.712 390.212 76.512C390.212 74.336 389.732 72.384 388.772 70.656C387.812 68.864 386.404 67.456 384.548 66.432C382.756 65.408 380.644 64.896 378.212 64.896H357.764V57.024H376.868C380.068 57.024 382.596 56.192 384.452 54.528C386.372 52.8 387.332 50.336 387.332 47.136C387.332 43.936 386.34 41.504 384.356 39.84C382.372 38.112 379.748 37.248 376.484 37.248H357.764V29.376H376.676C381.028 29.376 384.644 30.176 387.524 31.776C390.468 33.312 392.676 35.36 394.148 37.92C395.684 40.48 396.452 43.296 396.452 46.368C396.452 49.952 395.46 53.088 393.476 55.776C391.556 58.464 388.708 60.576 384.932 62.112L385.7 59.232C389.988 60.768 393.316 63.104 395.684 66.24C398.116 69.312 399.332 72.96 399.332 77.184C399.332 80.704 398.468 83.872 396.74 86.688C395.012 89.504 392.516 91.776 389.252 93.504C386.052 95.168 382.116 96 377.444 96H357.764ZM351.716 96V29.376H360.74V96H351.716ZM417.577 67.008V59.424H435.625C439.529 59.424 442.537 58.432 444.649 56.448C446.761 54.464 447.817 51.776 447.817 48.384C447.817 45.184 446.761 42.528 444.649 40.416C442.601 38.304 439.625 37.248 435.721 37.248H417.577V29.376H436.009C440.233 29.376 443.913 30.208 447.049 31.872C450.185 33.472 452.585 35.68 454.249 38.496C455.977 41.312 456.841 44.544 456.841 48.192C456.841 51.968 455.977 55.264 454.249 58.08C452.585 60.896 450.185 63.104 447.049 64.704C443.913 66.24 440.233 67.008 436.009 67.008H417.577ZM411.529 96V29.376H420.553V96H411.529ZM449.929 96L425.737 66.144L434.281 63.168L461.353 96H449.929ZM470.685 96V29.376H479.709V96H470.685ZM501.387 96V87.744H519.915C524.843 87.744 529.163 86.688 532.875 84.576C536.587 82.4 539.467 79.424 541.515 75.648C543.627 71.872 544.683 67.52 544.683 62.592C544.683 57.728 543.627 53.408 541.515 49.632C539.403 45.856 536.491 42.912 532.779 40.8C529.067 38.688 524.779 37.632 519.915 37.632H501.483V29.376H520.107C524.971 29.376 529.451 30.208 533.547 31.872C537.707 33.536 541.291 35.872 544.299 38.88C547.371 41.888 549.739 45.408 551.403 49.44C553.131 53.472 553.995 57.888 553.995 62.688C553.995 67.424 553.131 71.84 551.403 75.936C549.739 79.968 547.403 83.488 544.395 86.496C541.387 89.504 537.803 91.84 533.643 93.504C529.547 95.168 525.099 96 520.299 96H501.387ZM495.435 96V29.376H504.459V96H495.435ZM596.641 96.96C591.969 96.96 587.585 96.096 583.489 94.368C579.457 92.576 575.905 90.112 572.833 86.976C569.825 83.84 567.457 80.192 565.729 76.032C564.001 71.872 563.137 67.392 563.137 62.592C563.137 57.792 564.001 53.344 565.729 49.248C567.457 45.088 569.857 41.44 572.929 38.304C576.001 35.168 579.585 32.736 583.681 31.008C587.841 29.28 592.353 28.416 597.217 28.416C602.529 28.416 607.425 29.44 611.905 31.488C616.385 33.536 620.129 36.48 623.137 40.32L616.897 46.56C614.785 43.488 612.001 41.152 608.545 39.552C605.089 37.888 601.313 37.056 597.217 37.056C592.353 37.056 588.033 38.144 584.257 40.32C580.545 42.496 577.633 45.504 575.521 49.344C573.473 53.184 572.449 57.6 572.449 62.592C572.449 67.648 573.505 72.096 575.617 75.936C577.729 79.776 580.577 82.784 584.161 84.96C587.745 87.136 591.841 88.224 596.449 88.224C601.121 88.224 605.153 87.328 608.545 85.536C612.001 83.744 614.657 81.12 616.513 77.664C618.369 74.144 619.297 69.856 619.297 64.8L624.769 68.736H595.969V60.48H628.609V61.824C628.609 69.568 627.233 76.064 624.481 81.312C621.793 86.496 618.017 90.4 613.153 93.024C608.353 95.648 602.849 96.96 596.641 96.96ZM640.747 96V29.376H649.771V96H640.747ZM646.891 96V87.744H685.099V96H646.891ZM646.891 65.856V57.984H681.931V65.856H646.891ZM646.891 37.632V29.376H684.619V37.632H646.891Z" fill="#F7F8F7"/>
<rect width="41.3999" height="41.3999" transform="matrix(-1 0 0 1 41.3999 63.6001)" fill="#3555D4"/>
<rect width="41" height="41" transform="matrix(-1 0 0 1 41 16)" fill="#3555D4"/>
<rect width="41.3999" height="41.3999" transform="matrix(-1 0 0 1 89.6997 15.2998)" fill="#3555D4"/>
<rect width="41.3999" height="41.3999" transform="matrix(-1 0 0 1 138.4 15)" fill="#3555D4"/>
<rect width="41.3999" height="41.3999" transform="matrix(-1 0 0 1 138.4 63)" fill="#3555D4"/>
</svg>
