<svg width="536" height="138" viewBox="0 0 536 138" fill="none" xmlns="http://www.w3.org/2000/svg">
<path d="M127.92 73.008V65.424H145.968C149.872 65.424 152.88 64.432 154.992 62.448C157.104 60.464 158.16 57.776 158.16 54.384C158.16 51.184 157.104 48.528 154.992 46.416C152.944 44.304 149.968 43.248 146.064 43.248H127.92V35.376H146.352C150.576 35.376 154.256 36.208 157.392 37.872C160.528 39.472 162.928 41.68 164.592 44.496C166.32 47.312 167.184 50.544 167.184 54.192C167.184 57.968 166.32 61.264 164.592 64.08C162.928 66.896 160.528 69.104 157.392 70.704C154.256 72.24 150.576 73.008 146.352 73.008H127.92ZM121.872 102V35.376H130.896V102H121.872ZM160.272 102L136.08 72.144L144.624 69.168L171.696 102H160.272ZM181.028 102V35.376H190.052V102H181.028ZM187.172 102V93.744H225.38V102H187.172ZM187.172 71.856V63.984H222.212V71.856H187.172ZM187.172 43.632V35.376H224.9V43.632H187.172ZM282.677 102L261.749 71.472H260.117L233.813 35.376H244.565L265.301 64.08H266.933L293.237 102H282.677ZM232.661 102L258.485 66.576L264.629 71.952L242.837 102H232.661ZM267.509 69.84L261.461 64.464L282.005 35.376H292.181L267.509 69.84ZM308.668 102V93.744H327.196C332.124 93.744 336.444 92.688 340.156 90.576C343.868 88.4 346.748 85.424 348.796 81.648C350.908 77.872 351.964 73.52 351.964 68.592C351.964 63.728 350.908 59.408 348.796 55.632C346.684 51.856 343.772 48.912 340.06 46.8C336.348 44.688 332.06 43.632 327.196 43.632H308.764V35.376H327.388C332.252 35.376 336.732 36.208 340.828 37.872C344.988 39.536 348.572 41.872 351.58 44.88C354.652 47.888 357.02 51.408 358.684 55.44C360.412 59.472 361.276 63.888 361.276 68.688C361.276 73.424 360.412 77.84 358.684 81.936C357.02 85.968 354.684 89.488 351.676 92.496C348.668 95.504 345.084 97.84 340.924 99.504C336.828 101.168 332.38 102 327.58 102H308.668ZM302.716 102V35.376H311.74V102H302.716ZM373.778 102V35.376H382.802V102H373.778ZM379.922 102V93.744H418.13V102H379.922ZM379.922 71.856V63.984H414.962V71.856H379.922ZM379.922 43.632V35.376H417.65V43.632H379.922ZM447.244 102.96C441.996 102.96 437.516 102 433.804 100.08C430.092 98.16 426.796 95.376 423.916 91.728L430.06 85.584C432.172 88.528 434.604 90.768 437.356 92.304C440.108 93.776 443.5 94.512 447.532 94.512C451.5 94.512 454.668 93.648 457.036 91.92C459.468 90.192 460.684 87.824 460.684 84.816C460.684 82.32 460.108 80.304 458.956 78.768C457.804 77.232 456.236 75.984 454.252 75.024C452.332 74 450.22 73.104 447.916 72.336C445.612 71.504 443.308 70.64 441.004 69.744C438.7 68.784 436.588 67.632 434.668 66.288C432.748 64.88 431.18 63.056 429.964 60.816C428.812 58.576 428.236 55.76 428.236 52.368C428.236 48.592 429.132 45.392 430.924 42.768C432.78 40.08 435.276 38.032 438.412 36.624C441.612 35.152 445.196 34.416 449.164 34.416C453.516 34.416 457.42 35.28 460.876 37.008C464.332 38.672 467.148 40.88 469.324 43.632L463.18 49.776C461.196 47.472 459.052 45.744 456.748 44.592C454.508 43.44 451.916 42.864 448.972 42.864C445.388 42.864 442.54 43.664 440.428 45.264C438.316 46.8 437.26 48.976 437.26 51.792C437.26 54.032 437.836 55.856 438.988 57.264C440.204 58.608 441.772 59.76 443.692 60.72C445.612 61.68 447.724 62.576 450.028 63.408C452.396 64.176 454.732 65.04 457.036 66C459.34 66.96 461.452 68.176 463.372 69.648C465.292 71.12 466.828 73.04 467.98 75.408C469.196 77.712 469.804 80.624 469.804 84.144C469.804 90.032 467.756 94.64 463.66 97.968C459.628 101.296 454.156 102.96 447.244 102.96ZM523.15 102L489.55 67.248L522.478 35.376H534.19L498.67 69.552V64.56L535.15 102H523.15ZM481.966 102V35.376H490.99V102H481.966Z" fill="#F7F8F7"/>
<rect width="41.3999" height="41.3999" transform="matrix(-1 0 0 1 41.3999 96.6001)" fill="#F5CC00"/>
<rect width="41" height="41" transform="matrix(-1 0 0 1 41 49)" fill="#F5CC00"/>
<rect width="41.3999" height="41.3999" transform="matrix(-1 0 0 1 89.6997 48.2998)" fill="#F5CC00"/>
<rect width="41.3999" height="41.3999" transform="matrix(-1 0 0 1 89.6997 0)" fill="#F5CC00"/>
</svg>
